<svg width="800" height="320" viewBox="0 0 800 320" xmlns="http://www.w3.org/2000/svg" font-family="monospace">
  <defs>
    <linearGradient id="borderG1" x1="0%" y1="0%" x2="100%" y2="100%">
      <stop offset="0%" stop-color="#FF4D00"/>
      <stop offset="50%" stop-color="#FF8A00"/>
      <stop offset="100%" stop-color="#CC3300"/>
    </linearGradient>
    <linearGradient id="btnG1" x1="0%" y1="0%" x2="100%" y2="0%">
      <stop offset="0%" stop-color="#FF4D00"/>
      <stop offset="100%" stop-color="#CC3300"/>
    </linearGradient>
    <linearGradient id="topbar1" x1="0%" y1="0%" x2="100%" y2="0%">
      <stop offset="0%" stop-color="#FF4D00"/>
      <stop offset="60%" stop-color="#FF8A00"/>
      <stop offset="100%" stop-color="#0F0F18" stop-opacity="0"/>
    </linearGradient>
    <radialGradient id="glow1" cx="90%" cy="10%" r="40%">
      <stop offset="0%" stop-color="#FF4D00" stop-opacity="0.10"/>
      <stop offset="100%" stop-color="#0F0F18" stop-opacity="0"/>
    </radialGradient>
    <linearGradient id="phxLogoG" x1="0%" y1="0%" x2="0%" y2="100%">
      <stop offset="0%" stop-color="#FF8A00"/>
      <stop offset="100%" stop-color="#FF4D00"/>
    </linearGradient>
  </defs>

  <rect width="800" height="320" rx="18" fill="url(#borderG1)"/>
  <rect x="2" y="2" width="796" height="316" rx="16" fill="#0F0F18"/>
  <rect x="2" y="2" width="796" height="316" rx="16" fill="url(#glow1)"/>
  <rect x="2" y="2" width="796" height="3" rx="2" fill="url(#topbar1)"/>

  <!-- Stylized Phoenix Icon (Top Right) -->
  <g transform="translate(710, 30) scale(1.2)">
    <circle cx="25" cy="25" r="22" fill="#FF4D00" fill-opacity="0.1" stroke="#FF4D00" stroke-width="1" stroke-dasharray="2 2"/>
    <path d="M25 10 C35 15, 40 25, 25 40 C10 25, 15 15, 25 10 Z" fill="url(#phxLogoG)"/>
    <path d="M25 15 C30 20, 32 25, 25 35 C18 25, 20 20, 25 15 Z" fill="#0F0F18" fill-opacity="0.3"/>
    <path d="M25 5 L28 12 L22 12 Z" fill="#FF8A00"/> <!-- Top Flame -->
    <path d="M12 25 L19 22 L19 28 Z" fill="#FF8A00"/> <!-- Left Wing -->
    <path d="M38 25 L31 22 L31 28 Z" fill="#FF8A00"/> <!-- Right Wing -->
  </g>

  <!-- Badge row -->
  <rect x="28" y="28" width="130" height="22" rx="11" fill="url(#btnG1)"/>
  <text x="93" y="43" text-anchor="middle" font-size="10" font-weight="700" fill="#FFFFFF" letter-spacing="1">① CORE INFRA</text>

  <rect x="168" y="28" width="125" height="22" rx="11" fill="none" stroke="#FF4D00" stroke-width="1" stroke-opacity="0.5"/>
  <rect x="168" y="28" width="125" height="22" rx="11" fill="#FF4D00" fill-opacity="0.08"/>
  <text x="230" y="43" text-anchor="middle" font-size="10" font-weight="600" fill="#FF8A00" letter-spacing="0.5">Autonomous SDK</text>

  <!-- Title -->
  <text x="28" y="82" font-size="20" font-weight="700" fill="#F0EEE8">🐦‍🔥 Phoenix AI — Intelligent Agent Infrastructure</text>
  <text x="28" y="105" font-size="11" fill="#888888">Scalable RAG pipelines · Autonomous Agent orchestration · Neural memory · Vision-enabled Multimodal AI</text>

  <!-- Feature boxes -->
  <rect x="28" y="122" width="174" height="58" rx="8" fill="#FF4D00" fill-opacity="0.06" stroke="#FF4D00" stroke-opacity="0.18" stroke-width="1"/>
  <circle cx="44" cy="140" r="3.5" fill="#FF4D00"/>
  <text x="54" y="140" font-size="10" font-weight="700" fill="#FF8A00" letter-spacing="0.5">AGENTIC RAG</text>
  <text x="44" y="158" font-size="11" fill="#AAAAAA">Hybrid search &amp;</text>
  <text x="44" y="172" font-size="11" fill="#AAAAAA">neural reranking</text>

  <rect x="212" y="122" width="174" height="58" rx="8" fill="#FF4D00" fill-opacity="0.06" stroke="#FF4D00" stroke-opacity="0.18" stroke-width="1"/>
  <circle cx="228" cy="140" r="3.5" fill="#FF4D00"/>
  <text x="238" y="140" font-size="10" font-weight="700" fill="#FF8A00" letter-spacing="0.5">LLM AGNOSTIC</text>
  <text x="228" y="158" font-size="11" fill="#AAAAAA">Local VLM/LLM ·</text>
  <text x="228" y="172" font-size="11" fill="#AAAAAA">Cloud Providers</text>

  <rect x="396" y="122" width="174" height="58" rx="8" fill="#FF4D00" fill-opacity="0.06" stroke="#FF4D00" stroke-opacity="0.18" stroke-width="1"/>
  <circle cx="412" cy="140" r="3.5" fill="#FF4D00"/>
  <text x="422" y="140" font-size="10" font-weight="700" fill="#FF8A00" letter-spacing="0.5">NEURAL CACHE</text>
  <text x="412" y="158" font-size="11" fill="#AAAAAA">Redis-backed</text>
  <text x="412" y="172" font-size="11" fill="#AAAAAA">semantic memory</text>

  <rect x="580" y="122" width="192" height="58" rx="8" fill="#FF4D00" fill-opacity="0.06" stroke="#FF4D00" stroke-opacity="0.18" stroke-width="1"/>
  <circle cx="596" cy="140" r="3.5" fill="#FF4D00"/>
  <text x="606" y="140" font-size="10" font-weight="700" fill="#FF8A00" letter-spacing="0.5">SCALABILITY</text>
  <text x="596" y="158" font-size="11" fill="#AAAAAA">High-concurrency</text>
  <text x="596" y="172" font-size="11" fill="#AAAAAA">agentic backbone</text>

  <!-- Tags -->
  <rect x="28" y="198" width="58" height="22" rx="6" fill="#FFFFFF" fill-opacity="0.04" stroke="#FFFFFF" stroke-opacity="0.1" stroke-width="1"/>
  <text x="57" y="213" text-anchor="middle" font-size="11" fill="#888888">Python</text>

  <rect x="96" y="198" width="65" height="22" rx="6" fill="#FFFFFF" fill-opacity="0.04" stroke="#FFFFFF" stroke-opacity="0.1" stroke-width="1"/>
  <text x="128.5" y="213" text-anchor="middle" font-size="11" fill="#888888">PyTorch</text>

  <rect x="171" y="198" width="76" height="22" rx="6" fill="#FFFFFF" fill-opacity="0.04" stroke="#FFFFFF" stroke-opacity="0.1" stroke-width="1"/>
  <text x="209" y="213" text-anchor="middle" font-size="11" fill="#888888">ChromaDB</text>

  <rect x="257" y="198" width="86" height="22" rx="6" fill="#FFFFFF" fill-opacity="0.04" stroke="#FFFFFF" stop-opacity="0.1" stroke-width="1"/>
  <text x="300" y="213" text-anchor="middle" font-size="11" fill="#888888">Autonomous</text>

  <rect x="353" y="198" width="68" height="22" rx="6" fill="#FFFFFF" fill-opacity="0.04" stroke="#FFFFFF" stroke-opacity="0.1" stroke-width="1"/>
  <text x="387" y="213" text-anchor="middle" font-size="11" fill="#888888">MultiVLM</text>

  <!-- Button -->
  <rect x="28" y="240" width="160" height="38" rx="10" fill="url(#btnG1)"/>
  <text x="108" y="264" text-anchor="middle" font-size="12" font-weight="700" fill="#FFFFFF">View on GitHub →</text>

  <line x1="28" y1="295" x2="772" y2="295" stroke="#FF4D00" stroke-opacity="0.1" stroke-width="1"/>
  <text x="28" y="312" font-size="10" fill="#444444" letter-spacing="0.5">github.com/blackeagle686/phoenix-ai</text>
</svg>
